<?xml version="1.0" standalone="no"?>
<!DOCTYPE svg PUBLIC "-//W3C//DTD SVG 20010904//EN"
 "http://www.w3.org/TR/2001/REC-SVG-20010904/DTD/svg10.dtd">
<svg version="1.0" xmlns="http://www.w3.org/2000/svg"
 width="351.000000pt" height="351.000000pt" viewBox="0 0 351.000000 351.000000"
 preserveAspectRatio="xMidYMid meet">
<metadata>
Created by potrace 1.14, written by Peter Selinger 2001-2017
</metadata>
<g transform="translate(0.000000,351.000000) scale(0.100000,-0.100000)"
fill="#000000" stroke="none">
<path d="M1475 3224 c-132 -24 -299 -81 -433 -149 -442 -224 -749 -645 -834
-1139 -17 -103 -19 -148 -15 -306 8 -267 45 -415 162 -655 214 -434 625 -746
1107 -840 128 -24 129 -24 151 65 15 56 20 114 20 230 2 180 -13 247 -63 295
l-31 30 -213 5 -213 5 -38 29 c-54 42 -89 121 -93 218 -8 149 38 264 154 387
118 125 232 180 412 200 132 14 172 34 172 86 0 38 -93 75 -190 75 -52 0 -146
26 -215 60 -139 68 -272 218 -315 356 -40 130 -21 274 46 352 59 70 69 72 284
72 221 0 240 5 270 74 45 101 51 325 12 486 -20 87 -17 86 -137 64z"/>
<path d="M1903 3163 c-14 -59 -18 -118 -18 -243 0 -188 14 -251 66 -295 30
-25 32 -25 225 -25 212 0 238 -5 286 -56 62 -66 90 -193 69 -309 -29 -161
-167 -333 -331 -414 -82 -40 -114 -48 -278 -70 -88 -11 -122 -31 -122 -70 0
-52 48 -73 191 -86 196 -17 375 -134 481 -315 91 -155 86 -362 -10 -463 -51
-54 -66 -57 -269 -57 -159 0 -193 -3 -222 -18 -69 -35 -95 -136 -89 -342 3
-78 12 -166 22 -208 21 -85 17 -84 171 -52 410 84 776 334 1002 683 50 77 153
284 153 308 0 9 7 30 15 46 8 17 25 66 37 109 20 71 22 109 26 363 3 239 1
296 -13 360 -59 264 -184 512 -356 705 -178 199 -377 338 -618 431 -94 37
-257 79 -348 90 l-51 7 -19 -79z"/>
<path d="M3235 2930 c3 -5 10 -10 16 -10 5 0 9 5 9 10 0 6 -7 10 -16 10 -8 0
-12 -4 -9 -10z"/>
<path d="M3315 2920 c3 -5 8 -10 11 -10 2 0 4 5 4 10 0 6 -5 10 -11 10 -5 0
-7 -4 -4 -10z"/>
<path d="M1740 2457 c-14 -28 -46 -73 -71 -99 -53 -56 -62 -58 -254 -32 -140
18 -188 12 -227 -26 -37 -37 -38 -103 -4 -176 55 -118 122 -161 320 -205 156
-35 180 -43 227 -80 l37 -28 18 21 c29 32 89 55 231 87 165 37 222 62 273 118
126 136 117 288 -18 301 -29 2 -112 -3 -185 -13 -73 -10 -145 -15 -160 -11
-38 9 -96 72 -130 140 -16 31 -29 56 -30 56 -1 -1 -13 -24 -27 -53z"/>
<path d="M1726 1519 c-42 -31 -100 -50 -206 -67 -132 -20 -243 -79 -298 -156
-55 -77 -77 -169 -51 -217 18 -34 51 -39 155 -24 245 37 330 8 413 -144 l29
-54 17 34 c35 67 81 121 125 147 40 24 56 27 135 27 50 0 134 -7 187 -15 l97
-14 26 24 c32 30 33 78 4 155 -47 125 -176 208 -374 240 -96 16 -160 40 -200
75 -19 17 -21 16 -59 -11z"/>
</g>
</svg>
